<svg width="175" height="76" viewBox="0 0 175 76" xmlns="http://www.w3.org/2000/svg" fill="none"><path d="M22.256 30.906c2.968 1.508 4.451 3.784 4.451 6.856 0 3.071-1.017 5.046-3.077 6.691-2.061 1.618-5.056 2.441-8.957 2.441h-14.645v-30.96h13.738c3.874 0 6.842.74 8.902 2.249 2.033 1.508 3.077 3.647 3.077 6.444s-1.154 4.771-3.462 6.28h-.027zm-9.095-7.377h-3.27v4.168l3.819-.055c1.429-.164 2.116-.85 2.116-2.029 0-1.179-.275-1.207-.797-1.536-.522-.356-1.154-.521-1.868-.521v-.027zm.907 15.74c.797 0 1.456-.219 1.978-.631.522-.411.797-.932.797-1.591 0-1.234-.742-1.947-2.226-2.166l-4.699-.055v4.415h4.149v.027zM49.953 46.865l-1.181-3.976h-9.974l-1.181 3.976h-10.634l11.018-30.96h11.568l11.018 30.96h-10.634zm-9.04-11.051h5.743l-2.858-9.516-2.858 9.516h-.027zM98.642 15.933v30.96h-9.892v-15.082l-7.721 11.572h-.879l-7.721-11.572v15.082h-9.892v-30.96h9.892l8.161 12.614 8.161-12.614h9.892z" fill="#C3272E"/><path d="M0 65.705h4.341c1.044 0 1.841.247 2.445.74.604.494.879 1.097.879 1.755 0 .658-.467 1.536-1.374 2.002.687.192 1.209.494 1.594.96.357.466.55.987.55 1.618 0 .877-.302 1.59-.907 2.139-.604.548-1.484.823-2.638.823h-4.891v-10.037zm2.5 1.837v2.139h1.319c.412 0 .714-.11.934-.302.22-.219.33-.466.33-.768s-.11-.549-.33-.768c-.22-.192-.55-.302-.934-.302h-1.319zm0 3.976v2.358h1.401c.659 0 1.154-.082 1.429-.274.302-.192.44-.494.44-.96 0-.466-.137-.631-.412-.823-.275-.192-.659-.302-1.127-.302h-1.759.027zM17.831 65.705h2.5v5.704c0 1.453-.44 2.578-1.291 3.346-.852.768-2.116 1.124-3.709 1.124-1.594 0-2.83-.384-3.709-1.152-.879-.768-1.319-1.865-1.319-3.291v-5.704h2.5v5.759c0 .686.22 1.261.687 1.673.467.411 1.072.631 1.813.631.742 0 1.401-.219 1.841-.658.467-.439.687-1.042.687-1.837v-5.594zM25.168 65.705v10.037h-2.5v-10.037h2.5zM35.225 73.904v1.837h-7.666v-10.037h2.5v8.199h5.166zM36.682 65.705h4.424c1.704 0 3.077.466 4.067 1.398.989.932 1.484 2.139 1.484 3.62 0 1.481-.495 2.77-1.511 3.675-1.017.878-2.445 1.344-4.314 1.344h-4.149v-10.037zm2.5 1.837v6.362h1.621c1.072 0 1.868-.302 2.445-.877.577-.576.852-1.344.852-2.303 0-.96-.275-1.755-.852-2.331-.577-.576-1.374-.85-2.445-.85h-1.621zM51.163 65.705v10.037h-2.5v-10.037h2.5zM63.746 65.705v10.037h-2.116l-5.55-6.417v6.417h-2.5v-10.037h2.308l5.358 6.143v-6.143h2.5zM75.672 66.391v2.194c-1.291-.631-2.528-.932-3.764-.932-1.236 0-2.088.302-2.72.877-.632.603-.962 1.344-.962 2.276 0 .932.33 1.591.962 2.139.632.548 1.484.823 2.528.823s1.099-.11 1.649-.356v-1.179h-1.456v-1.837h3.957v4.113c-.385.384-1.017.713-1.814.96-.824.247-1.621.384-2.418.384-1.758 0-3.187-.494-4.314-1.453-1.127-.96-1.676-2.194-1.676-3.675 0-1.481.549-2.77 1.676-3.73 1.126-.96 2.583-1.426 4.369-1.426 1.786 0 2.803.274 3.957.823h.027zM84.959 66.335v1.947c-1.346-.603-2.391-.905-3.187-.905-.797 0-.797.082-1.072.219s-.412.356-.412.603.082.384.275.548c.192.165.659.384 1.401.658s1.346.521 1.786.768c.44.247.824.576 1.154.987.33.439.495.96.495 1.618 0 .932-.357 1.673-1.072 2.221-.714.549-1.649.823-2.803.823s-2.445-.329-3.627-.96v-2.166c.659.439 1.264.768 1.786.987.522.219 1.072.302 1.649.302.989 0 1.484-.302 1.484-.932 0-.631-.11-.411-.302-.603s-.659-.411-1.429-.686c-.742-.274-1.346-.521-1.786-.74-.44-.219-.824-.549-1.126-.987-.33-.439-.467-.96-.467-1.645s.357-1.563 1.044-2.084c.687-.521 1.621-.795 2.803-.795s2.198.247 3.407.768v.055zM97.159 65.705l4.451 10.037h-2.693l-.824-1.974h-4.506l-.742 1.974h-2.665l4.067-10.037h2.912zm.22 6.307l-1.621-3.894-1.484 3.894h3.105zM113.041 65.705v10.037h-2.115l-5.551-6.417v6.417h-2.5v-10.037h2.308l5.358 6.143v-6.143h2.5zM115.348 65.705h4.423c1.704 0 3.078.466 4.067 1.398.989.932 1.484 2.139 1.484 3.62 0 1.481-.495 2.77-1.511 3.675-1.017.905-2.446 1.344-4.314 1.344h-4.149v-10.037zm2.5 1.837v6.362h1.621c1.072 0 1.869-.302 2.446-.877.549-.576.851-1.344.851-2.303 0-.96-.274-1.755-.851-2.331-.577-.576-1.374-.85-2.446-.85h-1.621zM136.835 69.434l3.242-3.729h2.171v10.037h-2.501v-6.252l-2.72 3.153h-.385l-2.72-3.153v6.252h-2.5v-10.037h2.171l3.242 3.729zM149.858 65.568c1.704 0 3.105.521 4.149 1.536 1.072 1.042 1.594 2.221 1.594 3.592s-.55 2.605-1.621 3.62c-1.072 1.015-2.446 1.536-4.149 1.536-1.704 0-3.078-.521-4.149-1.536-1.072-1.015-1.594-2.221-1.594-3.62 0-1.398.522-2.578 1.594-3.592 1.071-1.042 2.445-1.536 4.176-1.536zm0 8.199c.962 0 1.704-.274 2.308-.85.577-.576.879-1.289.879-2.221 0-.932-.302-1.645-.879-2.221-.577-.548-1.346-.85-2.308-.85-.962 0-1.731.274-2.308.85-.577.549-.879 1.289-.879 2.221 0 .932.302 1.645.879 2.221.577.576 1.346.85 2.308.85zM157.496 65.705h4.479c.962 0 1.758.274 2.363.85.604.548.907 1.234.907 2.029 0 .795-.577 1.92-1.731 2.468.494.219.989.85 1.428 1.837.468 1.015.907 1.947 1.319 2.852h-2.747c-.165-.329-.44-.96-.852-1.892-.412-.932-.769-1.536-1.044-1.782-.302-.274-.605-.384-.934-.384h-.715v4.059h-2.5v-10.037h.027zm2.501 1.837v2.276h1.319c.412 0 .769-.11 1.016-.302s.357-.494.357-.85c0-.768-.467-1.124-1.428-1.124h-1.264zM175.001 73.904v1.837h-7.419v-10.037h7.309v1.837h-4.809v2.112h4.589v1.837h-4.589v2.413h4.919z" fill="#fff"/><path d="M173.104 53.447h-173.104v7.13h173.104v-7.13z" fill="#C3272E"/><path d="M121.942 38.228l.028 9.049h-7.859v-23.912l23.576-10.722v34.634h-8.766v-10.146l-6.979 1.097zM138.73 12.643l23.301 10.722v4.086l-23.301-9.214v-5.594zM138.73 19.279l23.301 9.351v3.263l-23.301-7.843v-4.771zM138.73 25.367l23.301 7.459v2.687l-23.301-5.347v-4.799zM138.73 31.29l23.301 5.265v2.962l-23.301-3.455v-4.772zM138.73 43.191l23.301 1.399v2.687h-23.301v-4.086zM138.73 37.323l23.301 3.346v2.962l-23.301-1.536v-4.771z" fill="#fff"/><path d="M109.221 15.687h-6.209v31.591h6.209v-31.591zM138.025-.122l-35.037 15.715 2.546 5.653 35.037-15.715-2.546-5.653zM138.025-.122l-35.037 15.715 2.546 5.653 35.037-15.715-2.546-5.653zM173.104 15.687h-6.209v31.591h6.209v-31.591zM173.104 15.687h-6.209v31.591h6.209v-31.591zM138.186.062l-2.545 5.653 35.037 15.715 2.545-5.653-35.037-15.715zM138.186.062l-2.545 5.653 35.037 15.715 2.545-5.653-35.037-15.715zM109.221 15.686h-6.209v31.591h6.209v-31.591zM138.025-.122l-35.037 15.715 2.546 5.653 35.037-15.715-2.546-5.653zM173.104 15.686h-6.209v31.591h6.209v-31.591zM138.186.061l-2.545 5.653 35.037 15.715 2.545-5.653-35.037-15.715z" fill="#C3272E"/></svg>