<svg width="177" height="106" viewBox="0 0 177 106" fill="none" xmlns="http://www.w3.org/2000/svg">
<path d="M153.633 91.1602V97.6794L102.428 106L158.049 101.443V91.1602H153.633ZM25.7596 91.1602V95.5453L88.4955 105.738L151.231 95.5453V91.1602H25.7596ZM18.9419 91.1602V101.443L74.5632 106L23.3581 97.6794V91.1602H18.9419Z" fill="white"/>
<path d="M134.358 21.2596L150.278 23.8439L145.574 26.5182L129.879 23.9699L134.358 21.2686V21.2596ZM42.6331 21.2596L47.1123 23.9609L31.4171 26.5092L26.713 23.8349L42.6331 21.2506V21.2596ZM115.308 18.162L129.978 20.5482L125.498 23.2496L111.908 21.0435L115.308 18.162ZM61.6832 18.162L65.0831 21.0435L51.4835 23.2496L47.0043 20.5482L61.6832 18.162ZM99.4146 15.5778L111.602 17.5587L108.202 20.4402L98.2273 18.8194L99.4236 15.5778H99.4146ZM77.5762 15.5778L78.7725 18.8194L68.7977 20.4402L65.3979 17.5587L77.5762 15.5778ZM88.4954 13.8039L96.5364 15.1095L95.3401 18.3511L88.4954 17.2346L81.6507 18.3511L80.4545 15.1095L88.5044 13.8039H88.4954ZM122.8 11.8139L139.853 14.5873L133.773 18.2521L118.186 15.7218L122.8 11.8139ZM54.1909 11.8139L58.796 15.7218L43.1997 18.2521L37.1285 14.5873L54.1819 11.8139H54.1909ZM161.017 8.8424L160.28 17.4957L170.092 14.056V9.6528L161.017 8.8424ZM15.9647 8.8424L6.8894 9.6528V14.056L16.7023 17.4957L15.9647 8.8424ZM102.041 8.4372L119.076 11.2016L114.462 15.1095L100.413 12.8314L102.032 8.4372H102.041ZM74.9499 8.4372L76.5689 12.8314L62.5197 15.1095L57.9055 11.2016L74.9409 8.4282L74.9499 8.4372ZM87.9018 2.46723V6.43821H89.0801V2.46723H87.9018ZM73.214 0V3.72786L54.1819 5.42971L50.5751 2.42221H47.526V6.033L29.8161 7.61779L25.13 5.09654H22.0809V8.31114L16.6033 8.79738L17.3679 17.7388L17.5028 17.7839L32.7662 15.3076L38.8375 18.9724L22.7285 21.5928L16.7652 18.2071L6.8984 14.7493V41.4566H13.1765L16.3425 21.2596L18.4472 22.4572V41.4656H22.2878L23.583 25.3746L29.6182 28.7963V41.4656H31.9657L32.8292 27.9409L88.4864 18.8914L144.144 27.9409L145.007 41.4656H147.364V28.7963L153.39 25.3836L154.685 41.4656H158.535V22.4572L160.648 21.2596L163.805 41.4566H170.092V14.7493L160.226 18.2071L154.262 21.5928L138.153 18.9724L144.225 15.2986L159.488 17.7839L159.623 17.7388L160.388 8.79738L154.901 8.31114V5.09654H151.861L147.175 7.61779L129.465 6.033V2.42221H126.416L122.809 5.42971L103.777 3.72786V0H100.728L99.3786 3.33166L89.7277 2.46723V6.43821L99.1808 7.97797L97.5528 12.3722L88.4954 10.9044L79.4471 12.3722L77.8191 7.97797L87.2722 6.43821V2.46723L77.6212 3.33166L76.2631 0H73.214Z" fill="#C3272E"/>
<path d="M20.3902 54.3679C20.3902 53.1343 20.1294 52.3329 19.5987 51.9547C19.0681 51.5585 18.1506 51.3604 16.8285 51.3604H7.19548V57.2043H16.9274C18.2046 57.2043 19.095 57.0242 19.5987 56.673C20.1294 56.2948 20.3902 55.5295 20.3902 54.3589V54.3679ZM18.3125 46.0117C21.6315 46.0117 23.934 46.552 25.2112 47.6325C26.5064 48.7131 27.154 50.8831 27.154 54.1428C27.154 57.4024 26.6503 59.4014 25.634 60.68C24.6446 61.9316 22.5579 62.562 19.3649 62.562H7.19548V68.0457H0.503662V46.0207H18.3125V46.0117Z" fill="#C3272E"/>
<path d="M35.8243 55.6928C36.238 54.3691 36.9576 53.4777 37.974 53.0184C39.0083 52.5322 40.3035 52.2891 41.8685 52.2891C44.243 52.2891 45.88 52.7033 46.7885 53.5407C47.6879 54.3781 48.1376 55.9629 48.1376 58.2951V59.2856H42.8309C42.8129 59.2225 42.7949 59.0965 42.7949 58.9254C42.705 57.8899 42.4352 57.2415 41.9675 56.9804C41.5267 56.6923 40.6993 56.5482 39.494 56.5482C38.2888 56.5482 37.1555 56.9264 36.6248 57.6737C36.0941 58.4031 35.8333 59.5107 35.8333 61.0054V68.0379H30.1309V52.6132H35.8333V55.6838L35.8243 55.6928Z" fill="#C3272E"/>
<path d="M60.991 64.1475H61.6206C62.673 64.1475 63.5185 64.1115 64.1571 64.0485C64.8136 63.9855 65.3083 63.8324 65.6411 63.5893C65.9919 63.3281 66.2348 63.004 66.3697 62.6348C66.5226 62.2386 66.6035 61.6443 66.6035 60.8519V59.6993C66.6035 58.997 66.5406 58.4747 66.4056 58.1505C66.2707 57.7994 66.0189 57.4932 65.6501 57.2231C65.2724 56.962 64.6877 56.7819 63.9052 56.6918C63.1137 56.6018 62.2143 56.5568 61.1979 56.5568C60.1815 56.5568 59.3271 56.6108 58.6255 56.7278C57.9239 56.8179 57.3483 57.034 56.9076 57.3852C56.4938 57.7363 56.251 58.2406 56.179 58.9069C56.1161 59.5462 56.0801 60.0505 56.0801 60.4287C56.0801 61.086 56.1341 61.7073 56.251 62.2746C56.3589 62.8239 56.6018 63.2381 56.9795 63.5262C57.3573 63.8144 58.0139 63.9855 58.9583 64.0575C59.9207 64.1205 60.6043 64.1565 61 64.1565L60.991 64.1475ZM60.8921 52.3247L66.8644 52.5588C68.9331 52.8019 70.3632 53.4412 71.1547 54.4677C71.9642 55.4762 72.3779 57.07 72.3779 59.2221V59.8794C72.3779 63.004 72.0271 65.111 71.3256 66.1916C70.624 67.2721 68.7082 67.9564 65.5872 68.2356L59.3181 68.3706C55.9722 68.3706 53.6336 67.9384 52.2935 67.083C50.9713 66.2276 50.3147 64.2286 50.3147 61.104V60.1766C50.3147 58.2136 50.4856 56.6738 50.8454 55.5483C51.1961 54.4227 51.9697 53.6393 53.1569 53.1981C54.3622 52.7389 55.7473 52.4687 57.3123 52.4057C58.8953 52.3427 60.0916 52.3066 60.9101 52.3066L60.8921 52.3247Z" fill="#C3272E"/>
<path d="M82.1011 61.3734C82.1011 62.2739 82.3979 62.8502 82.9915 63.0933C83.6031 63.3094 84.4576 63.4265 85.5279 63.4265L88.6939 63.4625L93.1821 63.3274C94.4144 63.3274 95.2149 63.1743 95.5926 62.8682C95.9704 62.562 96.1503 62.0758 96.1503 61.4185C96.1503 60.7611 95.9344 60.3469 95.4937 59.9958C95.08 59.6446 94.2615 59.4645 93.0562 59.4645H91.9679L80.9498 59.2394C78.8811 59.2394 77.424 58.7171 76.5605 57.6816C75.724 56.6281 75.3103 55.0163 75.3103 52.8642C75.3103 50.7121 75.5711 49.6136 76.1018 48.6051C76.6505 47.5966 77.6308 46.9122 79.034 46.5611C80.4641 46.1829 82.3259 45.9668 84.6105 45.9037C86.922 45.8407 88.4691 45.8047 89.2606 45.8047L93.9467 45.8677C95.8175 45.8677 97.3196 46.0208 98.4618 46.327C99.6041 46.6151 100.405 47.1554 100.872 47.9478C101.358 48.7402 101.664 49.4515 101.799 50.0908C101.934 50.7301 101.997 51.6126 101.997 52.7381H95.4307C95.4307 51.9638 95.1969 51.4235 94.7382 51.1173C94.2974 50.8112 93.6678 50.6581 92.8583 50.6581L89.6294 50.6221L84.5116 50.7842C83.828 50.7842 83.2433 50.9192 82.7666 51.1804C82.3079 51.4235 82.0741 51.8377 82.0741 52.432C82.0741 53.0263 82.3529 53.7917 82.9016 54.0528C83.4772 54.2959 84.2417 54.413 85.2131 54.413H85.9057L90.3939 54.476L94.8191 54.512C97.6523 54.512 99.7121 54.9623 100.989 55.8717C102.284 56.7541 102.932 58.537 102.932 61.2204C102.932 63.9037 102.347 65.6055 101.187 66.569C100.045 67.5415 98.138 68.0188 95.4847 68.0188L86.9041 68.2529L82.4159 68.1538C80.0413 68.1538 78.2964 67.7666 77.1721 67.0012C76.0478 66.2359 75.4902 64.6781 75.4902 62.3459V61.0223H82.0831L82.119 61.3824L82.1011 61.3734Z" fill="#C3272E"/>
<path d="M118.177 64.112C120.093 64.112 121.335 63.8778 121.901 63.4186C122.468 62.9324 122.756 61.7888 122.756 59.9879C122.756 58.187 122.549 57.8628 122.126 57.3766C121.712 56.8723 120.849 56.6202 119.554 56.6202L115.794 56.5572C114.984 56.5572 114.373 56.6022 113.977 56.6923C113.581 56.7823 113.231 56.9354 112.925 57.1515C112.637 57.3676 112.439 57.7008 112.331 58.142C112.223 58.5832 112.169 59.0965 112.169 59.6908V60.285C112.169 61.6267 112.376 62.5992 112.799 63.1935C113.213 63.7698 114.058 64.0489 115.335 64.0489L118.177 64.112ZM112.142 55.0985C112.358 54.5942 112.61 54.153 112.898 53.7748C113.186 53.3966 113.617 53.0995 114.184 52.8834C114.76 52.6673 115.434 52.5142 116.226 52.4241C117.035 52.3341 117.989 52.2891 119.059 52.2891C122.405 52.2891 124.815 52.6763 126.281 53.4416C127.757 54.189 128.494 56.0619 128.494 59.0514V60.9334C128.494 62.185 128.422 63.2475 128.26 64.103C128.107 64.9584 127.676 65.7778 126.974 66.5432C126.29 67.2905 125.283 67.7858 123.943 68.0289C122.621 68.245 121.02 68.3621 119.122 68.3621C117.224 68.3621 115.92 68.182 114.733 67.8308C113.572 67.4526 112.7 66.6512 112.124 65.4176V74.8633H106.413V52.6042H112.124V55.0805L112.142 55.0985Z" fill="#C3272E"/>
<path d="M140.771 64.7423H141.266C142.516 64.7423 143.541 64.6882 144.333 64.5802C145.142 64.4451 145.673 64.256 145.916 64.0219C146.159 63.7788 146.276 63.4096 146.276 62.8963C146.276 62.3831 146.024 61.8698 145.52 61.6717C145.034 61.4556 144.441 61.3386 143.739 61.3386L140.474 61.2755C139.467 61.2755 138.603 61.3746 137.902 61.5727C137.2 61.7528 136.849 62.212 136.849 62.9594C136.849 63.7067 137.128 64.166 137.677 64.4091C138.226 64.6252 138.945 64.7423 139.818 64.7423H140.771ZM138.63 52.4241L144.603 52.2891C146.977 52.2891 148.803 52.6402 150.08 53.3426C151.375 54.0449 152.023 55.4767 152.023 57.6377V68.0379H146.285V65.5257C145.844 66.7593 145.043 67.5427 143.874 67.8758C142.732 68.209 141.248 68.3711 139.422 68.3711H138.369C135.905 68.3711 134.097 68.0649 132.928 67.4436C131.786 66.8313 131.21 65.3996 131.21 63.1485C131.21 60.8973 131.651 60.2941 132.532 59.4836C133.432 58.6462 134.7 58.232 136.328 58.232C137.182 58.169 138.055 58.133 138.936 58.133H141.509C142.669 58.133 143.631 58.232 144.378 58.4301C145.151 58.6282 145.781 59.0784 146.294 59.7808V58.097C146.294 57.1695 146.096 56.5572 145.7 56.251C145.304 55.9179 144.63 55.7558 143.685 55.7558L141.041 55.6928L139.161 55.7558C138.612 55.7558 138.208 55.8368 137.938 55.9899C137.677 56.143 137.542 56.4761 137.542 56.9804H131.867C131.867 55.2245 132.496 54.0179 133.746 53.3786C135.024 52.7393 136.652 52.4241 138.63 52.4241Z" fill="#C3272E"/>
<path d="M161.251 55.7918C161.737 54.3871 162.528 53.4506 163.626 52.9824C164.723 52.5232 166.144 52.2891 167.88 52.2891C171.001 52.2891 173.214 52.8023 174.509 53.8378C175.831 54.8463 176.488 56.8904 176.488 59.9519V68.0469H170.749V59.9519C170.749 58.5922 170.461 57.7098 169.895 57.3136C169.346 56.9174 168.312 56.7193 166.792 56.7193H166.135C164.444 56.7193 163.203 56.9714 162.411 57.4756C161.647 57.9619 161.26 59.0604 161.26 60.7803V68.0469H155.558V52.6222H161.26V55.7918H161.251Z" fill="#C3272E"/>
<path d="M2.36552 82.8497C2.36552 83.1649 2.46446 83.363 2.68033 83.453C2.89619 83.5341 3.19301 83.5701 3.57077 83.5701H4.68607C4.68607 83.5791 6.26009 83.5341 6.26009 83.5341C6.69182 83.5341 6.97065 83.48 7.10556 83.372C7.24048 83.2639 7.30344 83.0928 7.30344 82.8587C7.30344 82.6246 7.22249 82.4805 7.06958 82.3635C6.92567 82.2374 6.63785 82.1834 6.21512 82.1834H5.83735L1.97876 82.1024C1.25022 82.1024 0.737539 81.9223 0.440725 81.5531C0.14391 81.1839 0 80.6166 0 79.8602C0 79.1039 0.0899439 78.7257 0.278826 78.3655C0.476702 78.0143 0.818489 77.7712 1.30419 77.6451C1.80787 77.5101 2.45547 77.438 3.25597 77.411C4.06546 77.384 4.60512 77.375 4.88395 77.375L6.52992 77.393C7.18651 77.393 7.71718 77.447 8.11293 77.5551C8.50869 77.6541 8.79651 77.8432 8.9584 78.1224C9.1293 78.4015 9.23723 78.6536 9.2822 78.8788C9.32717 79.1039 9.35416 79.41 9.35416 79.8062H7.0516C7.0516 79.5361 6.97065 79.347 6.80875 79.2389C6.65584 79.1309 6.43098 79.0768 6.15216 79.0768H5.01887C5.01887 79.0678 3.22898 79.1219 3.22898 79.1219C2.99513 79.1219 2.78826 79.1669 2.61737 79.2659C2.45547 79.347 2.37452 79.5001 2.37452 79.7072C2.37452 79.9143 2.47346 80.1844 2.66234 80.2745C2.86021 80.3555 3.13004 80.4005 3.47183 80.4005H3.71468L5.2887 80.4185H6.83573C7.82511 80.4275 8.54466 80.5896 8.99438 80.9048C9.4531 81.2109 9.67795 81.8412 9.67795 82.7777C9.67795 83.7142 9.47108 84.3175 9.06634 84.6506C8.66159 84.9928 7.99601 85.1639 7.06958 85.1639L4.06546 85.2449L2.49144 85.2089C1.66396 85.2089 1.04335 85.0738 0.65659 84.8037C0.260837 84.5336 0.0629606 83.9933 0.0629606 83.1739V82.7147H2.37452V82.8407L2.36552 82.8497Z" fill="white"/>
<path d="M16.8013 85.1817V79.3918H13.3564V77.4648H22.5757V79.3918H19.1488V85.1817H16.8013Z" fill="white"/>
<path d="M35.042 77.4648V79.2207H28.7909V80.5444H34.6193V82.0751H28.7909V83.4348H35.042V85.1817H26.4434V77.4648H35.042Z" fill="white"/>
<path d="M47.9221 77.4648V79.2207H41.662V80.5444H47.5083V82.0751H41.662V83.4348H47.9221V85.1817H39.3145V77.4648H47.9221Z" fill="white"/>
<path d="M59.8753 83.2547V85.1817H52.1941V77.4648H54.5416V83.2547H59.8753Z" fill="white"/>
<path d="M76.8035 82.6874C76.8035 82.4803 76.7316 82.3183 76.5966 82.2012C76.4617 82.0842 76.2009 82.0301 75.8141 82.0301H71.5148V83.4438H75.7781C76.048 83.4438 76.2908 83.4168 76.4977 83.3628C76.7046 83.2997 76.8125 83.0746 76.8125 82.6874H76.8035ZM76.4887 79.797C76.4887 79.5359 76.4167 79.3648 76.2548 79.2748C76.1109 79.1937 75.8861 79.1487 75.5983 79.1487H71.5058V80.4904H75.5533C75.8591 80.4904 76.0929 80.4453 76.2459 80.3643C76.4078 80.2833 76.4887 80.0942 76.4887 79.797ZM76.4797 77.4648C77.2532 77.4648 77.8379 77.6089 78.2516 77.9061C78.6563 78.2032 78.8632 78.7165 78.8632 79.4548C78.8632 80.1932 78.8362 80.0581 78.7733 80.2923C78.7193 80.5174 78.6114 80.6885 78.4585 80.8235C78.3146 80.9586 78.1706 81.0396 78.0447 81.0847C77.9188 81.1297 77.7479 81.1837 77.5141 81.2467C78.1347 81.3458 78.5664 81.5079 78.8093 81.724C79.0521 81.9401 79.169 82.3543 79.169 82.9666C79.169 83.5789 78.9622 84.4073 78.5484 84.7225C78.1437 85.0286 77.4961 85.1907 76.6056 85.1907H69.1763V77.4739H76.4977L76.4797 77.4648Z" fill="white"/>
<path d="M93.4512 81.8766V82.3268C93.4512 83.5334 93.1363 84.3258 92.5067 84.713C91.8861 85.0912 90.9147 85.2803 89.6016 85.2803H87.6768C86.6604 85.2713 85.8779 85.2173 85.3472 85.1092C84.8076 85.0012 84.3758 84.731 84.043 84.2898C83.7102 83.8486 83.5483 83.1552 83.5483 82.2188V77.4824H85.8959V81.5254C85.8959 82.2998 85.9858 82.7951 86.1747 83.0292C86.3546 83.2633 86.8223 83.3804 87.5688 83.3804H88.6212C88.6212 83.3894 89.5926 83.3804 89.5926 83.3804C90.2312 83.3804 90.6449 83.2813 90.8158 83.0832C90.9957 82.8851 91.0946 82.4799 91.0946 81.8676V77.4914H93.4512V81.8856V81.8766Z" fill="white"/>
<path d="M100.351 77.4648H98.0032V85.1817H100.351V77.4648Z" fill="white"/>
<path d="M112.583 83.2547V85.1817H104.911V77.4648H107.258V83.2547H112.583Z" fill="white"/>
<path d="M124.392 81.3548V81.2827C124.392 80.5264 124.311 80.0131 124.14 79.752C123.969 79.4909 123.519 79.3648 122.773 79.3648H118.788V83.2998H122.737C123.466 83.2998 123.915 83.1647 124.104 82.8946C124.302 82.6244 124.392 82.1112 124.392 81.3548ZM123.232 77.4648C124.626 77.4648 125.561 77.699 126.038 78.1582C126.515 78.6174 126.757 79.5449 126.757 80.9316V81.823C126.757 82.1832 126.757 82.4443 126.739 82.5884C126.73 82.7325 126.686 83.0386 126.614 83.4888C126.533 83.9391 126.272 84.3263 125.813 84.6684C125.354 85.0106 124.788 85.1817 124.104 85.1817H116.441V77.4648H123.241H123.232Z" fill="white"/>
<path d="M133.504 77.4648H131.156V85.1817H133.504V77.4648Z" fill="white"/>
<path d="M144.899 85.1817L140.249 79.3828V85.1817H138.045V77.4648H141.778L146.419 83.2547V77.4648H148.632V85.1817H144.899Z" fill="white"/>
<path d="M163.095 80.8325V82.4533C163.104 83.4078 162.942 84.1102 162.609 84.5694C162.285 85.0196 161.646 85.2537 160.702 85.2537H159.479C159.479 85.2627 158.085 85.2537 158.085 85.2537H156.87C155.98 85.2447 155.278 85.1817 154.757 85.0737C154.244 84.9476 153.83 84.6865 153.525 84.2723C153.228 83.8671 153.075 83.2367 153.075 82.3993L153.048 81.4268C153.048 79.9231 153.237 78.8786 153.606 78.3023C153.974 77.726 154.847 77.4379 156.223 77.4379L157.977 77.4018H158.624C158.624 77.3928 160.198 77.4289 160.198 77.4289C161.215 77.4289 161.952 77.6089 162.402 77.9601C162.861 78.3113 163.095 78.9866 163.095 79.9861V80.1302H160.792C160.792 79.9501 160.765 79.788 160.711 79.653C160.657 79.5179 160.558 79.4278 160.405 79.3738C160.261 79.3198 160.117 79.2928 159.983 79.2838C159.848 79.2658 159.659 79.2568 159.407 79.2568H156.691C156.133 79.2478 155.782 79.3828 155.638 79.653C155.494 79.9231 155.422 80.3823 155.422 81.0126V81.733C155.422 82.2643 155.494 82.6605 155.638 82.9216C155.782 83.1737 155.989 83.3178 156.259 83.3628C156.529 83.3898 156.736 83.4168 156.879 83.4168C157.023 83.4258 157.212 83.4258 157.437 83.4258H159.533C159.929 83.4348 160.234 83.3718 160.459 83.2457C160.693 83.1107 160.81 82.8676 160.81 82.5074V82.2913H157.833V80.8415H163.113L163.095 80.8325Z" fill="white"/>
<path d="M169.706 82.8497C169.706 83.1649 169.814 83.363 170.021 83.453C170.236 83.5341 170.533 83.5701 170.911 83.5701H172.017C172.017 83.5791 173.591 83.5341 173.591 83.5341C174.023 83.5341 174.302 83.48 174.437 83.372C174.572 83.2639 174.635 83.0928 174.635 82.8587C174.635 82.6246 174.563 82.4805 174.401 82.3635C174.257 82.2374 173.969 82.1834 173.546 82.1834H173.169L169.31 82.1024C168.582 82.1024 168.069 81.9223 167.772 81.5531C167.475 81.1839 167.331 80.6166 167.331 79.8602C167.331 79.1039 167.421 78.7257 167.61 78.3655C167.808 78.0143 168.15 77.7712 168.635 77.6451C169.139 77.5101 169.787 77.438 170.587 77.411C171.397 77.384 171.945 77.375 172.215 77.375L173.852 77.393C174.509 77.393 175.03 77.447 175.435 77.5551C175.84 77.6541 176.119 77.8432 176.281 78.1224C176.452 78.4015 176.56 78.6536 176.605 78.8788C176.649 79.1039 176.676 79.41 176.676 79.8062H174.374C174.374 79.5361 174.293 79.347 174.131 79.2389C173.978 79.1309 173.753 79.0768 173.474 79.0768H172.341C172.341 79.0678 170.551 79.1219 170.551 79.1219C170.308 79.1219 170.111 79.1669 169.94 79.2659C169.778 79.347 169.697 79.5001 169.697 79.7072C169.697 79.9143 169.796 80.1844 169.985 80.2745C170.183 80.3555 170.452 80.4005 170.794 80.4005H171.037L172.611 80.4185H174.158C175.156 80.4275 175.876 80.5896 176.317 80.9048C176.766 81.2109 177 81.8412 177 82.7777C177 83.7142 176.793 84.3175 176.389 84.6506C175.984 84.9928 175.318 85.1639 174.392 85.1639L171.388 85.2449L169.814 85.2089C168.977 85.2089 168.366 85.0738 167.979 84.8037C167.583 84.5336 167.394 83.9933 167.394 83.1739V82.7147H169.706V82.8407V82.8497Z" fill="white"/>
</svg>
