<svg width="111" height="75" viewBox="0 0 111 75" fill="none" xmlns="http://www.w3.org/2000/svg">
<path d="M93.9168 53.3204V57.1335L63.9479 62L96.5015 59.335V53.3204H93.9168ZM19.0762 53.3204V55.8853L55.7937 61.8473L92.5112 55.8853V53.3204H19.0762ZM15.0859 53.3204V59.335L47.6395 62L17.6706 57.1335V53.3204H15.0859Z" fill="black"/>
<path d="M82.6359 12.4347L91.9535 13.9463L89.2003 15.5105L80.0144 14.02L82.6359 12.44V12.4347ZM28.952 12.4347L31.5736 14.0148L22.3876 15.5052L19.6344 13.941L28.952 12.4295V12.4347ZM71.4864 10.623L80.0723 12.0187L77.4507 13.5987L69.4966 12.3083L71.4864 10.623ZM40.1015 10.623L42.0914 12.3083L34.1319 13.5987L31.5104 12.0187L40.1015 10.623ZM62.1847 9.11144L69.3176 10.2701L67.3277 11.9555L61.4898 11.0075L62.1899 9.11144H62.1847ZM49.4033 9.11144L50.1034 11.0075L44.2654 11.9555L42.2756 10.2701L49.4033 9.11144ZM55.794 8.07389L60.5001 8.83757L59.8 10.7336L55.794 10.0805L51.7879 10.7336L51.0878 8.83757L55.7992 8.07389H55.794ZM75.8715 6.90994L85.8523 8.5321L82.2938 10.6757L73.171 9.1957L75.8715 6.90994ZM35.7165 6.90994L38.4117 9.1957L29.2836 10.6757L25.7303 8.5321L35.7112 6.90994H35.7165ZM98.2389 5.17193L97.8072 10.2332L103.55 8.22136V5.64593L98.2389 5.17193ZM13.3438 5.17193L8.03223 5.64593V8.22136L13.7754 10.2332L13.3438 5.17193ZM63.7218 4.93492L73.6921 6.55181L70.9916 8.83757L62.769 7.50509L63.7165 4.93492H63.7218ZM47.8661 4.93492L48.8137 7.50509L40.5911 8.83757L37.8906 6.55181L47.8609 4.92966L47.8661 4.93492ZM55.4465 1.44308V3.76571H56.1361V1.44308H55.4465ZM46.8502 0V2.18042L35.7112 3.17584L33.6003 1.41675H31.8157V3.52871L21.4506 4.45565L18.7079 2.98097H16.9234V4.86119L13.7175 5.14559L14.165 10.3755L14.2439 10.4018L23.1772 8.95344L26.7305 11.097L17.3024 12.6296L13.8123 10.6493L8.03749 8.6269V24.248H11.7119L13.5649 12.4347L14.7967 13.1352V24.2533H17.0445L17.8025 14.8416L21.3348 16.843V24.2533H22.7087L23.2141 16.3427L55.7887 11.0496L88.3633 16.3427L88.8687 24.2533H90.2479V16.843L93.7749 14.8469L94.5329 24.2533H96.786V13.1352L98.0231 12.4347L99.8708 24.248H103.55V8.6269L97.7757 10.6493L94.2855 12.6296L84.8574 11.097L88.4107 8.94817L97.344 10.4018L97.423 10.3755L97.8704 5.14559L94.6593 4.86119V2.98097H92.88L90.1374 4.45565L79.7722 3.52871V1.41675H77.9877L75.8767 3.17584L64.7378 2.18042V0H62.9532L62.1636 1.94869L56.5152 1.44308V3.76571L62.0478 4.66632L61.095 7.23648L55.794 6.37801L50.4982 7.23648L49.5454 4.66632L55.078 3.76571V1.44308L49.4296 1.94869L48.6347 0H46.8502Z" fill="#F32435"/>
<path d="M15.9335 31.8005C15.9335 31.0789 15.7808 30.6102 15.4702 30.389C15.1597 30.1573 14.6227 30.0414 13.8489 30.0414H8.21097V33.4595H13.9068C14.6543 33.4595 15.1755 33.3542 15.4702 33.1488C15.7808 32.9276 15.9335 32.4799 15.9335 31.7952V31.8005ZM14.7175 26.913C16.6599 26.913 18.0076 27.229 18.7551 27.861C19.5131 28.493 19.8921 29.7623 19.8921 31.6688C19.8921 33.5754 19.5974 34.7446 19.0025 35.4925C18.4234 36.2245 17.2022 36.5932 15.3334 36.5932H8.21097V39.8006H4.29443V26.9182H14.7175V26.913Z" fill="#F32435"/>
<path d="M24.9675 32.5748C25.2096 31.8006 25.6308 31.2792 26.2256 31.0106C26.831 30.7262 27.589 30.584 28.505 30.584C29.8947 30.584 30.8528 30.8263 31.3845 31.3161C31.9109 31.8059 32.1741 32.7328 32.1741 34.0969V34.6762H29.0682C29.0577 34.6394 29.0472 34.5656 29.0472 34.4656C28.9946 33.8599 28.8366 33.4807 28.5629 33.3279C28.3049 33.1594 27.8206 33.0751 27.1152 33.0751C26.4098 33.0751 25.7466 33.2964 25.436 33.7335C25.1254 34.1601 24.9727 34.8079 24.9727 35.6822V39.7955H21.6353V30.7736H24.9727V32.5695L24.9675 32.5748Z" fill="#F32435"/>
<path d="M39.6963 37.5202H40.0648C40.6807 37.5202 41.1755 37.4992 41.5493 37.4623C41.9336 37.4254 42.2231 37.3359 42.4179 37.1937C42.6232 37.041 42.7653 36.8514 42.8443 36.6354C42.9338 36.4037 42.9811 36.0561 42.9811 35.5926V34.9185C42.9811 34.5077 42.9443 34.2022 42.8653 34.0126C42.7864 33.8072 42.639 33.6281 42.4231 33.4701C42.2021 33.3174 41.8599 33.212 41.4019 33.1594C40.9387 33.1067 40.4122 33.0804 39.8174 33.0804C39.2225 33.0804 38.7224 33.112 38.3118 33.1804C37.9012 33.2331 37.5643 33.3595 37.3064 33.5649C37.0642 33.7703 36.9221 34.0653 36.88 34.455C36.8431 34.8289 36.8221 35.1239 36.8221 35.3451C36.8221 35.7295 36.8537 36.0929 36.9221 36.4247C36.9853 36.746 37.1274 36.9883 37.3485 37.1568C37.5696 37.3254 37.9539 37.4254 38.5066 37.4676C39.0699 37.5044 39.47 37.5255 39.7016 37.5255L39.6963 37.5202ZM39.6384 30.605L43.1338 30.742C44.3446 30.8842 45.1816 31.2581 45.6448 31.8585C46.1186 32.4484 46.3607 33.3806 46.3607 34.6393V35.0238C46.3607 36.8514 46.1554 38.0838 45.7448 38.7158C45.3342 39.3478 44.213 39.748 42.3863 39.9113L38.7172 39.9903C36.7589 39.9903 35.3902 39.7375 34.6059 39.2372C33.832 38.7368 33.4478 37.5676 33.4478 35.7401V35.1976C33.4478 34.0495 33.5478 33.1488 33.7583 32.4905C33.9636 31.8322 34.4164 31.374 35.1112 31.1159C35.8166 30.8473 36.6273 30.6893 37.5433 30.6524C38.4698 30.6156 39.1699 30.5945 39.6489 30.5945L39.6384 30.605Z" fill="#F32435"/>
<path d="M52.0516 35.898C52.0516 36.4247 52.2253 36.7618 52.5727 36.904C52.9307 37.0304 53.4308 37.0989 54.0572 37.0989L55.9102 37.1199L58.537 37.0409C59.2582 37.0409 59.7267 36.9514 59.9478 36.7723C60.1689 36.5932 60.2742 36.3088 60.2742 35.9244C60.2742 35.5399 60.1479 35.2976 59.8899 35.0922C59.6478 34.8868 59.1687 34.7815 58.4633 34.7815H57.8264L51.3778 34.6498C50.167 34.6498 49.3142 34.3444 48.8089 33.7387C48.3193 33.1225 48.0771 32.1797 48.0771 30.921C48.0771 29.6622 48.2298 29.0197 48.5404 28.4298C48.8615 27.84 49.4353 27.4397 50.2565 27.2343C51.0935 27.0131 52.1832 26.8867 53.5203 26.8498C54.8732 26.8129 55.7786 26.7919 56.2419 26.7919L58.9845 26.8287C60.0794 26.8287 60.9586 26.9183 61.6271 27.0973C62.2957 27.2659 62.7642 27.5819 63.0379 28.0454C63.3222 28.5088 63.5011 28.9249 63.5801 29.2988C63.6591 29.6728 63.6959 30.1889 63.6959 30.8472H59.8531C59.8531 30.3943 59.7162 30.0783 59.4477 29.8992C59.1898 29.7202 58.8213 29.6306 58.3475 29.6306L56.4577 29.6096L53.4624 29.7044C53.0623 29.7044 52.7201 29.7834 52.4411 29.9361C52.1727 30.0783 52.0358 30.3206 52.0358 30.6682C52.0358 31.0158 52.199 31.4635 52.5201 31.6162C52.857 31.7584 53.3045 31.8269 53.873 31.8269H54.2783L56.9051 31.8637L59.4951 31.8848C61.1533 31.8848 62.3588 32.1481 63.1063 32.6801C63.8644 33.1962 64.2434 34.239 64.2434 35.8085C64.2434 37.378 63.9012 38.3734 63.2221 38.9369C62.5536 39.5057 61.4376 39.7849 59.8847 39.7849L54.8627 39.9218L52.2358 39.8639C50.8461 39.8639 49.8248 39.6374 49.1668 39.1897C48.5088 38.7421 48.1824 37.8309 48.1824 36.4668V35.6926H52.0411L52.0621 35.9033L52.0516 35.898Z" fill="#F32435"/>
<path d="M73.1663 37.4992C74.2876 37.4992 75.014 37.3623 75.3457 37.0937C75.6773 36.8093 75.8457 36.1404 75.8457 35.087C75.8457 34.0337 75.7247 33.8441 75.4773 33.5597C75.2351 33.2647 74.7297 33.1173 73.9717 33.1173L71.7713 33.0804C71.2975 33.0804 70.9396 33.1067 70.7079 33.1594C70.4763 33.2121 70.271 33.3016 70.092 33.428C69.9236 33.5544 69.8078 33.7493 69.7446 34.0074C69.6814 34.2654 69.6498 34.5656 69.6498 34.9132V35.2608C69.6498 36.0456 69.7709 36.6144 70.0183 36.962C70.2605 37.2991 70.7553 37.4623 71.5028 37.4623L73.1663 37.4992ZM69.634 32.2272C69.7604 31.9323 69.9078 31.6742 70.0762 31.453C70.2447 31.2318 70.4974 31.058 70.829 30.9316C71.1659 30.8052 71.5607 30.7157 72.024 30.663C72.4977 30.6103 73.0557 30.584 73.6822 30.584C75.6404 30.584 77.0512 30.8105 77.9093 31.2581C78.7726 31.6953 79.2043 32.7907 79.2043 34.5393V35.64C79.2043 36.3721 79.1622 36.9936 79.0674 37.4939C78.9779 37.9943 78.7252 38.4735 78.3146 38.9212C77.9146 39.3584 77.325 39.648 76.5406 39.7902C75.7668 39.9166 74.8298 39.9851 73.719 39.9851C72.6083 39.9851 71.845 39.8798 71.1501 39.6744C70.471 39.4531 69.9604 38.9844 69.6235 38.2629V43.7877H66.2808V30.7683H69.6235V32.2167L69.634 32.2272Z" fill="#F32435"/>
<path d="M86.3893 37.8679H86.6788C87.4105 37.8679 88.0106 37.8363 88.4739 37.7731C88.9476 37.6941 89.2582 37.5835 89.4004 37.4465C89.5425 37.3043 89.6109 37.0884 89.6109 36.7882C89.6109 36.488 89.4635 36.1878 89.1687 36.0719C88.8845 35.9455 88.537 35.877 88.1264 35.877L86.2155 35.8402C85.626 35.8402 85.1206 35.8981 84.71 36.014C84.2994 36.1193 84.0941 36.3879 84.0941 36.8251C84.0941 37.2622 84.2573 37.5308 84.5784 37.673C84.8995 37.7994 85.3206 37.8679 85.8313 37.8679H86.3893ZM85.1364 30.663L88.6318 30.584C90.0215 30.584 91.0902 30.7894 91.8377 31.2002C92.5957 31.611 92.9747 32.4484 92.9747 33.7124V39.7955H89.6162V38.3261C89.3582 39.0476 88.8897 39.5058 88.2054 39.7007C87.5368 39.8956 86.6683 39.9904 85.5996 39.9904H84.9837C83.5413 39.9904 82.4833 39.8113 81.7989 39.4479C81.1304 39.0897 80.7935 38.2523 80.7935 36.9357C80.7935 35.619 81.0514 35.2661 81.5673 34.7921C82.0937 34.3023 82.836 34.06 83.7888 34.06C84.2889 34.0232 84.7995 34.0021 85.3154 34.0021H86.8209C87.5 34.0021 88.0633 34.06 88.5002 34.1759C88.9529 34.2918 89.3214 34.5551 89.6215 34.9659V33.981C89.6215 33.4385 89.5056 33.0804 89.274 32.9013C89.0424 32.7065 88.6476 32.6117 88.0948 32.6117L86.5472 32.5748L85.447 32.6117C85.1259 32.6117 84.889 32.6591 84.731 32.7486C84.5784 32.8381 84.4994 33.033 84.4994 33.3279H81.1777C81.1777 32.3009 81.5462 31.5952 82.2779 31.2213C83.0255 30.8473 83.9783 30.663 85.1364 30.663Z" fill="#F32435"/>
<path d="M98.3757 32.6327C98.6599 31.8111 99.1232 31.2634 99.7654 30.9895C100.408 30.7209 101.239 30.584 102.255 30.584C104.082 30.584 105.377 30.8842 106.135 31.4899C106.909 32.0797 107.293 33.2753 107.293 35.066V39.8008H103.935V35.066C103.935 34.2707 103.766 33.7546 103.435 33.5228C103.113 33.2911 102.508 33.1752 101.618 33.1752H101.234C100.244 33.1752 99.518 33.3227 99.0548 33.6176C98.6073 33.902 98.3809 34.5446 98.3809 35.5505V39.8008H95.0435V30.7789H98.3809V32.6327H98.3757Z" fill="#F32435"/>
<path d="M5.38447 48.4593C5.38447 48.6436 5.44238 48.7595 5.56872 48.8121C5.69506 48.8595 5.86878 48.8806 6.08987 48.8806H6.74263C6.74263 48.8859 7.66386 48.8595 7.66386 48.8595C7.91654 48.8595 8.07973 48.8279 8.15869 48.7647C8.23765 48.7015 8.2745 48.6015 8.2745 48.4645C8.2745 48.3276 8.22712 48.2433 8.13763 48.1748C8.0534 48.1011 7.88495 48.0695 7.63754 48.0695H7.41644L5.15812 48.0221C4.73172 48.0221 4.43166 47.9168 4.25794 47.7008C4.08423 47.4849 4 47.1531 4 46.7107C4 46.2683 4.05264 46.0471 4.16319 45.8364C4.279 45.631 4.47904 45.4888 4.7633 45.4151C5.0581 45.3361 5.43712 45.2939 5.90563 45.2781C6.3794 45.2623 6.69525 45.2571 6.85844 45.2571L7.82178 45.2676C8.20607 45.2676 8.51665 45.2992 8.74827 45.3624C8.9799 45.4203 9.14835 45.531 9.24311 45.6942C9.34312 45.8575 9.40629 46.005 9.43262 46.1366C9.45894 46.2683 9.47473 46.4474 9.47473 46.6791H8.1271C8.1271 46.5211 8.07973 46.4105 7.98497 46.3473C7.89548 46.2841 7.76388 46.2525 7.60069 46.2525H6.9374C6.9374 46.2472 5.88983 46.2788 5.88983 46.2788C5.75297 46.2788 5.63189 46.3052 5.53187 46.3631C5.43712 46.4105 5.38974 46.5 5.38974 46.6212C5.38974 46.7423 5.44764 46.9003 5.55819 46.953C5.674 47.0004 5.83193 47.0267 6.03197 47.0267H6.1741L7.09533 47.0372H8.00076C8.57982 47.0425 9.00095 47.1373 9.26416 47.3216C9.53263 47.5007 9.66424 47.8694 9.66424 48.4171C9.66424 48.9649 9.54316 49.3177 9.30628 49.5126C9.06939 49.7127 8.67984 49.8128 8.13763 49.8128L6.3794 49.8602L5.45817 49.8391C4.97387 49.8391 4.61064 49.7601 4.38428 49.6021C4.15266 49.4441 4.03685 49.1281 4.03685 48.6489V48.3803H5.38974V48.454L5.38447 48.4593Z" fill="black"/>
<path d="M13.8336 49.8233V46.4368H11.8174V45.3097H17.2131V46.4368H15.2075V49.8233H13.8336Z" fill="black"/>
<path d="M24.5096 45.3097V46.3367H20.851V47.1109H24.2622V48.0063H20.851V48.8015H24.5096V49.8233H19.4771V45.3097H24.5096Z" fill="black"/>
<path d="M32.0476 45.3097V46.3367H28.3837V47.1109H31.8054V48.0063H28.3837V48.8015H32.0476V49.8233H27.0098V45.3097H32.0476Z" fill="black"/>
<path d="M39.0434 48.6962V49.8233H34.5479V45.3097H35.9218V48.6962H39.0434Z" fill="black"/>
<path d="M48.9508 48.3644C48.9508 48.2433 48.9087 48.1485 48.8297 48.08C48.7508 48.0115 48.5981 47.9799 48.3718 47.9799H45.8555V48.8068H48.3507C48.5086 48.8068 48.6508 48.791 48.7718 48.7594C48.8929 48.7225 48.9561 48.5909 48.9561 48.3644H48.9508ZM48.7666 46.6738C48.7666 46.521 48.7245 46.421 48.6297 46.3683C48.5455 46.3209 48.4139 46.2946 48.2454 46.2946H45.8502V47.0793H48.2191C48.3981 47.0793 48.535 47.053 48.6244 47.0056C48.7192 46.9582 48.7666 46.8476 48.7666 46.6738ZM48.7613 45.3097C49.214 45.3097 49.5562 45.394 49.7984 45.5678C50.0352 45.7416 50.1563 46.0418 50.1563 46.4736C50.1563 46.9055 50.1405 46.8265 50.1037 46.9634C50.0721 47.0951 50.0089 47.1952 49.9194 47.2742C49.8352 47.3532 49.751 47.4006 49.6773 47.4269C49.6036 47.4533 49.5036 47.4849 49.3667 47.5217C49.7299 47.5797 49.9826 47.6745 50.1247 47.8009C50.2669 47.9273 50.3353 48.1695 50.3353 48.5277C50.3353 48.8858 50.2142 49.3703 49.9721 49.5547C49.7352 49.7337 49.3562 49.8285 48.835 49.8285H44.4868V45.315H48.7718L48.7613 45.3097Z" fill="black"/>
<path d="M58.6948 47.8905V48.1538C58.6948 48.8595 58.5105 49.323 58.142 49.5495C57.7788 49.7707 57.2103 49.8813 56.4417 49.8813H55.3152C54.7203 49.876 54.2623 49.8444 53.9518 49.7812C53.6359 49.718 53.3832 49.56 53.1885 49.302C52.9937 49.0439 52.8989 48.6383 52.8989 48.0906V45.3203H54.2729V47.6851C54.2729 48.138 54.3255 48.4277 54.4361 48.5646C54.5413 48.7015 54.8151 48.77 55.252 48.77H55.8679C55.8679 48.7753 56.4364 48.77 56.4364 48.77C56.8102 48.77 57.0524 48.7121 57.1524 48.5962C57.2577 48.4803 57.3156 48.2433 57.3156 47.8852V45.3256H58.6948V47.8957V47.8905Z" fill="black"/>
<path d="M62.733 45.3097H61.3584V49.8233H62.733V45.3097Z" fill="black"/>
<path d="M69.8917 48.6962V49.8233H65.4014V45.3097H66.7753V48.6962H69.8917Z" fill="black"/>
<path d="M76.8034 47.5849V47.5428C76.8034 47.1004 76.756 46.8002 76.656 46.6474C76.556 46.4947 76.2928 46.421 75.8559 46.421H73.5239V48.7225H75.8348C76.2612 48.7225 76.5244 48.6435 76.635 48.4855C76.7508 48.3275 76.8034 48.0273 76.8034 47.5849ZM76.1243 45.3097C76.9403 45.3097 77.4878 45.4466 77.7668 45.7152C78.0458 45.9838 78.1879 46.5263 78.1879 47.3374V47.8588C78.1879 48.0695 78.1879 48.2222 78.1774 48.3065C78.1721 48.3907 78.1458 48.5698 78.1037 48.8331C78.0563 49.0965 77.9036 49.3229 77.6352 49.5231C77.3667 49.7232 77.035 49.8233 76.635 49.8233H72.1499V45.3097H76.1296H76.1243Z" fill="black"/>
<path d="M82.1368 45.3097H80.7622V49.8233H82.1368V45.3097Z" fill="black"/>
<path d="M88.8057 49.8233L86.0842 46.4315V49.8233H84.7944V45.3097H86.9791L89.6954 48.6962V45.3097H90.9903V49.8233H88.8057Z" fill="black"/>
<path d="M99.4548 47.2794V48.2274C99.46 48.7857 99.3653 49.1965 99.1705 49.4651C98.981 49.7285 98.6073 49.8654 98.0545 49.8654H97.3386C97.3386 49.8707 96.5226 49.8654 96.5226 49.8654H95.812C95.2908 49.8601 94.8802 49.8233 94.5749 49.7601C94.2748 49.6863 94.0327 49.5336 93.8537 49.2913C93.68 49.0543 93.5905 48.6857 93.5905 48.1959L93.5747 47.627C93.5747 46.7475 93.6853 46.1366 93.9011 45.7995C94.1169 45.4624 94.6275 45.2939 95.433 45.2939L96.4595 45.2728H96.8385C96.8385 45.2676 97.7597 45.2886 97.7597 45.2886C98.3546 45.2886 98.7862 45.3939 99.0494 45.5994C99.3179 45.8048 99.4548 46.1998 99.4548 46.7844V46.8686H98.1072C98.1072 46.7633 98.0914 46.6685 98.0598 46.5895C98.0282 46.5105 97.9703 46.4578 97.8808 46.4262C97.7966 46.3946 97.7123 46.3788 97.6334 46.3736C97.5544 46.363 97.4439 46.3578 97.2965 46.3578H95.7067C95.3803 46.3525 95.175 46.4315 95.0908 46.5895C95.0066 46.7475 94.9644 47.0161 94.9644 47.3848V47.8061C94.9644 48.1168 95.0066 48.3486 95.0908 48.5013C95.175 48.6488 95.2961 48.7331 95.454 48.7594C95.6119 48.7752 95.733 48.791 95.8172 48.791C95.9015 48.7963 96.012 48.7963 96.1436 48.7963H97.3702C97.6018 48.8015 97.7808 48.7647 97.9124 48.6909C98.0492 48.6119 98.1177 48.4697 98.1177 48.259V48.1327H96.3752V47.2847H99.4653L99.4548 47.2794Z" fill="black"/>
<path d="M103.324 48.4593C103.324 48.6436 103.387 48.7595 103.509 48.8121C103.635 48.8595 103.809 48.8806 104.03 48.8806H104.677C104.677 48.8859 105.598 48.8595 105.598 48.8595C105.851 48.8595 106.014 48.8279 106.093 48.7647C106.172 48.7015 106.209 48.6015 106.209 48.4645C106.209 48.3276 106.167 48.2433 106.072 48.1748C105.988 48.1011 105.82 48.0695 105.572 48.0695H105.351L103.093 48.0221C102.666 48.0221 102.366 47.9168 102.193 47.7008C102.019 47.4849 101.935 47.1531 101.935 46.7107C101.935 46.2683 101.987 46.0471 102.098 45.8364C102.214 45.631 102.414 45.4888 102.698 45.4151C102.993 45.3361 103.372 45.2939 103.84 45.2781C104.314 45.2623 104.635 45.2571 104.793 45.2571L105.751 45.2676C106.135 45.2676 106.441 45.2992 106.678 45.3624C106.914 45.4203 107.078 45.531 107.172 45.6942C107.272 45.8575 107.336 46.005 107.362 46.1366C107.388 46.2683 107.404 46.4474 107.404 46.6791H106.056C106.056 46.5211 106.009 46.4105 105.914 46.3473C105.825 46.2841 105.693 46.2525 105.53 46.2525H104.867C104.867 46.2472 103.819 46.2788 103.819 46.2788C103.677 46.2788 103.561 46.3052 103.461 46.3631C103.366 46.4105 103.319 46.5 103.319 46.6212C103.319 46.7423 103.377 46.9003 103.487 46.953C103.603 47.0004 103.761 47.0267 103.961 47.0267H104.103L105.025 47.0372H105.93C106.514 47.0425 106.936 47.1373 107.193 47.3216C107.457 47.5007 107.594 47.8694 107.594 48.4171C107.594 48.9649 107.472 49.3177 107.236 49.5126C106.999 49.7127 106.609 49.8128 106.067 49.8128L104.309 49.8602L103.387 49.8391C102.898 49.8391 102.54 49.7601 102.314 49.6021C102.082 49.4441 101.971 49.1281 101.971 48.6489V48.3803H103.324V48.454V48.4593Z" fill="black"/>
<path d="M0.296 73L2.264 67.848H3.448L5.408 73H4.288L3.8 71.76H1.904L1.424 73H0.296ZM2.064 70.928H3.64L2.848 68.856L2.064 70.928ZM7.59694 73V67.848H10.2049C10.7223 67.848 11.1063 67.9707 11.3569 68.216C11.6129 68.456 11.7409 68.7973 11.7409 69.24C11.7409 69.5173 11.6876 69.7493 11.5809 69.936C11.4743 70.1173 11.3303 70.2587 11.1489 70.36C11.3889 70.4347 11.5783 70.56 11.7169 70.736C11.8609 70.9067 11.9329 71.16 11.9329 71.496C11.9329 71.992 11.7916 72.368 11.5089 72.624C11.2316 72.8747 10.8289 73 10.3009 73H7.59694ZM8.67694 69.984H10.0049C10.2663 69.984 10.4529 69.928 10.5649 69.816C10.6769 69.6987 10.7329 69.536 10.7329 69.328C10.7329 69.0987 10.6743 68.928 10.5569 68.816C10.4449 68.704 10.2343 68.648 9.92494 68.648H8.67694V69.984ZM8.67694 72.208H10.0449C10.3169 72.208 10.5169 72.152 10.6449 72.04C10.7729 71.928 10.8369 71.7307 10.8369 71.448C10.8369 71.2187 10.7729 71.048 10.6449 70.936C10.5223 70.824 10.2983 70.768 9.97294 70.768H8.67694V72.208ZM13.9229 73.08C13.4695 73.08 13.1149 72.9547 12.8589 72.704C12.6082 72.448 12.4829 72.0747 12.4829 71.584V69.208H13.5629V71.56C13.5629 71.816 13.6242 72.0027 13.7469 72.12C13.8695 72.232 14.0535 72.288 14.2989 72.288C14.4855 72.288 14.6562 72.2507 14.8109 72.176C14.9709 72.1013 15.1069 72.008 15.2189 71.896V69.208H16.2989V73H15.2989L15.2589 72.64C15.0989 72.768 14.9095 72.8747 14.6909 72.96C14.4775 73.04 14.2215 73.08 13.9229 73.08ZM17.3222 68.512V67.664H18.4982V68.512H17.3222ZM17.4102 73V70.008H16.8422L16.9382 69.208H18.4902V73H17.4102ZM20.3058 73.08C19.9378 73.08 19.6684 72.9947 19.4978 72.824C19.3324 72.6533 19.2498 72.3813 19.2498 72.008V67.608H20.3298V71.92C20.3298 72.0533 20.3564 72.1467 20.4098 72.2C20.4631 72.248 20.5404 72.272 20.6418 72.272C20.7804 72.272 20.9058 72.2533 21.0178 72.216V72.96C20.8151 73.04 20.5778 73.08 20.3058 73.08ZM23.0566 73.08C22.7206 73.08 22.4192 73.0213 22.1526 72.904C21.8912 72.7813 21.6859 72.584 21.5366 72.312C21.3872 72.0347 21.3126 71.6693 21.3126 71.216C21.3126 70.7627 21.3952 70.3813 21.5606 70.072C21.7259 69.7627 21.9472 69.528 22.2246 69.368C22.5019 69.208 22.8059 69.128 23.1366 69.128C23.5526 69.128 23.9072 69.224 24.2006 69.416V67.608H25.2806V73H24.3526L24.2886 72.648C24.1232 72.792 23.9419 72.9013 23.7446 72.976C23.5526 73.0453 23.3232 73.08 23.0566 73.08ZM23.3526 72.288C23.6886 72.288 23.9712 72.1733 24.2006 71.944V70.216C23.9766 70.0187 23.7152 69.92 23.4166 69.92C22.7446 69.92 22.4086 70.352 22.4086 71.216C22.4086 71.6213 22.4912 71.9013 22.6566 72.056C22.8219 72.2107 23.0539 72.288 23.3526 72.288ZM26.2953 68.512V67.664H27.4713V68.512H26.2953ZM26.3833 73V70.008H25.8153L25.9113 69.208H27.4633V73H26.3833ZM28.2229 73V69.208H29.2229L29.2629 69.568C29.4175 69.4507 29.6122 69.3493 29.8469 69.264C30.0869 69.1733 30.3375 69.128 30.5989 69.128C31.1002 69.128 31.4655 69.2453 31.6949 69.48C31.9242 69.7147 32.0389 70.0773 32.0389 70.568V73H30.9589V70.624C30.9589 70.368 30.9055 70.1867 30.7989 70.08C30.6975 69.9733 30.5055 69.92 30.2229 69.92C30.0575 69.92 29.8895 69.9573 29.7189 70.032C29.5535 70.1067 29.4149 70.2 29.3029 70.312V73H28.2229ZM34.3582 74.408C34.0755 74.408 33.7849 74.3893 33.4862 74.352C33.1929 74.3147 32.9449 74.2613 32.7422 74.192V73.384C32.9555 73.4533 33.2062 73.5067 33.4942 73.544C33.7822 73.5867 34.0515 73.608 34.3022 73.608C34.6702 73.608 34.9369 73.5867 35.1022 73.544C35.2675 73.5067 35.3502 73.4373 35.3502 73.336C35.3502 73.2507 35.3129 73.192 35.2382 73.16C35.1689 73.128 35.0195 73.112 34.7902 73.112H33.7582C33.0809 73.112 32.7422 72.8613 32.7422 72.36C32.7422 72.2053 32.7849 72.064 32.8702 71.936C32.9555 71.808 33.0915 71.7067 33.2782 71.632C32.8462 71.4133 32.6302 71.0453 32.6302 70.528C32.6302 70.0373 32.7822 69.6827 33.0862 69.464C33.3902 69.24 33.8409 69.128 34.4382 69.128C34.5609 69.128 34.6942 69.1387 34.8382 69.16C34.9875 69.176 35.0995 69.192 35.1742 69.208H36.5982L36.5742 69.888H35.9742C36.1395 70.0427 36.2222 70.2587 36.2222 70.536C36.2222 70.9253 36.0995 71.2373 35.8542 71.472C35.6089 71.7013 35.2462 71.816 34.7662 71.816C34.6809 71.816 34.5982 71.8133 34.5182 71.808C34.4435 71.7973 34.3662 71.7867 34.2862 71.776C34.1262 71.7973 33.9902 71.8347 33.8782 71.888C33.7715 71.9413 33.7182 72.0133 33.7182 72.104C33.7182 72.2267 33.8275 72.288 34.0462 72.288H35.1182C35.5022 72.288 35.7982 72.376 36.0062 72.552C36.2142 72.7227 36.3182 72.9733 36.3182 73.304C36.3182 73.6773 36.1502 73.9547 35.8142 74.136C35.4782 74.3173 34.9929 74.408 34.3582 74.408ZM34.4462 71.208C34.7662 71.208 34.9875 71.1547 35.1102 71.048C35.2382 70.936 35.3022 70.7493 35.3022 70.488C35.3022 70.2267 35.2382 70.0373 35.1102 69.92C34.9875 69.8027 34.7662 69.744 34.4462 69.744C34.1422 69.744 33.9235 69.8027 33.7902 69.92C33.6569 70.032 33.5902 70.2213 33.5902 70.488C33.5902 70.7333 33.6515 70.9147 33.7742 71.032C33.9022 71.1493 34.1262 71.208 34.4462 71.208ZM38.2233 73.08C37.9406 73.08 37.6713 73.0587 37.4153 73.016C37.1593 72.9787 36.9539 72.9307 36.7993 72.872V71.976C36.9859 72.0507 37.1966 72.1093 37.4313 72.152C37.6659 72.1893 37.8819 72.208 38.0793 72.208C38.3459 72.208 38.5326 72.192 38.6393 72.16C38.7513 72.128 38.8073 72.056 38.8073 71.944C38.8073 71.816 38.7219 71.7227 38.5513 71.664C38.3859 71.6053 38.1379 71.5227 37.8073 71.416C37.4606 71.2987 37.1939 71.1573 37.0073 70.992C36.8206 70.8267 36.7273 70.5813 36.7273 70.256C36.7273 69.8933 36.8579 69.616 37.1193 69.424C37.3859 69.2267 37.8126 69.128 38.3993 69.128C38.6339 69.128 38.8553 69.1467 39.0633 69.184C39.2713 69.216 39.4473 69.256 39.5913 69.304V70.192C39.4473 70.1227 39.2819 70.072 39.0953 70.04C38.9086 70.0027 38.7353 69.984 38.5753 69.984C38.3459 69.984 38.1619 70 38.0233 70.032C37.8899 70.064 37.8233 70.1333 37.8233 70.24C37.8233 70.3573 37.8953 70.44 38.0393 70.488C38.1886 70.536 38.4179 70.608 38.7273 70.704C39.0313 70.7947 39.2686 70.8933 39.4393 71C39.6099 71.1067 39.7299 71.2347 39.7993 71.384C39.8686 71.528 39.9033 71.7093 39.9033 71.928C39.9033 72.696 39.3433 73.08 38.2233 73.08ZM41.9307 73L43.8987 67.848H45.0827L47.0427 73H45.9227L45.4347 71.76H43.5387L43.0587 73H41.9307ZM43.6987 70.928H45.2747L44.4827 68.856L43.6987 70.928ZM47.6338 73V69.208H48.6338L48.6738 69.568C48.8285 69.4507 49.0231 69.3493 49.2578 69.264C49.4978 69.1733 49.7485 69.128 50.0098 69.128C50.5111 69.128 50.8765 69.2453 51.1058 69.48C51.3351 69.7147 51.4498 70.0773 51.4498 70.568V73H50.3698V70.624C50.3698 70.368 50.3165 70.1867 50.2098 70.08C50.1085 69.9733 49.9165 69.92 49.6338 69.92C49.4685 69.92 49.3005 69.9573 49.1298 70.032C48.9645 70.1067 48.8258 70.2 48.7138 70.312V73H47.6338ZM53.6281 73.08C53.2921 73.08 52.9908 73.0213 52.7241 72.904C52.4628 72.7813 52.2575 72.584 52.1081 72.312C51.9588 72.0347 51.8841 71.6693 51.8841 71.216C51.8841 70.7627 51.9668 70.3813 52.1321 70.072C52.2975 69.7627 52.5188 69.528 52.7961 69.368C53.0735 69.208 53.3775 69.128 53.7081 69.128C54.1241 69.128 54.4788 69.224 54.7721 69.416V67.608H55.8521V73H54.9241L54.8601 72.648C54.6948 72.792 54.5135 72.9013 54.3161 72.976C54.1241 73.0453 53.8948 73.08 53.6281 73.08ZM53.9241 72.288C54.2601 72.288 54.5428 72.1733 54.7721 71.944V70.216C54.5481 70.0187 54.2868 69.92 53.9881 69.92C53.3161 69.92 52.9801 70.352 52.9801 71.216C52.9801 71.6213 53.0628 71.9013 53.2281 72.056C53.3935 72.2107 53.6255 72.288 53.9241 72.288ZM58.2007 73V67.848H59.2887L60.8007 70.944L62.3127 67.848H63.3927V73H62.3127V69.648L61.1127 72.112H60.4887L59.2807 69.648V73H58.2007ZM66.0382 73.08C65.3289 73.08 64.8089 72.9093 64.4782 72.568C64.1476 72.2213 63.9822 71.7333 63.9822 71.104C63.9822 70.4747 64.1476 69.9893 64.4782 69.648C64.8142 69.3013 65.3342 69.128 66.0382 69.128C66.7476 69.128 67.2676 69.3013 67.5982 69.648C67.9342 69.9893 68.1022 70.4747 68.1022 71.104C68.1022 71.7333 67.9369 72.2213 67.6062 72.568C67.2756 72.9093 66.7529 73.08 66.0382 73.08ZM66.0382 72.16C66.3849 72.16 66.6329 72.0827 66.7822 71.928C66.9316 71.768 67.0062 71.4933 67.0062 71.104C67.0062 70.7147 66.9316 70.4427 66.7822 70.288C66.6329 70.128 66.3849 70.048 66.0382 70.048C65.6969 70.048 65.4516 70.128 65.3022 70.288C65.1529 70.4427 65.0782 70.7147 65.0782 71.104C65.0782 71.4933 65.1529 71.768 65.3022 71.928C65.4516 72.0827 65.6969 72.16 66.0382 72.16ZM68.6932 73V69.208H69.6932L69.7412 69.6C69.9119 69.4933 70.1225 69.3973 70.3732 69.312C70.6292 69.2213 70.8799 69.16 71.1252 69.128V69.944C70.9812 69.9653 70.8239 69.9973 70.6532 70.04C70.4825 70.0827 70.3199 70.1307 70.1652 70.184C70.0105 70.2373 69.8799 70.2933 69.7732 70.352V73H68.6932ZM73.3373 73.08C72.6813 73.08 72.1613 72.9173 71.7773 72.592C71.3933 72.2613 71.2013 71.7627 71.2013 71.096C71.2013 70.4933 71.3613 70.016 71.6813 69.664C72.0066 69.3067 72.4893 69.128 73.1293 69.128C73.716 69.128 74.164 69.2827 74.4733 69.592C74.788 69.896 74.9453 70.296 74.9453 70.792V71.48H72.2013C72.26 71.784 72.3986 71.992 72.6173 72.104C72.8413 72.216 73.156 72.272 73.5613 72.272C73.764 72.272 73.9693 72.2533 74.1773 72.216C74.3906 72.1787 74.572 72.1307 74.7213 72.072V72.84C74.5453 72.92 74.34 72.9787 74.1053 73.016C73.8706 73.0587 73.6146 73.08 73.3373 73.08ZM72.2013 70.816H74.0013V70.608C74.0013 70.3893 73.9373 70.2187 73.8093 70.096C73.6813 69.968 73.4653 69.904 73.1613 69.904C72.804 69.904 72.5533 69.976 72.4093 70.12C72.2706 70.264 72.2013 70.496 72.2013 70.816ZM79.6471 73.08C78.7831 73.08 78.1217 72.848 77.6631 72.384C77.2044 71.9147 76.9751 71.2773 76.9751 70.472C76.9751 69.6187 77.1964 68.9547 77.6391 68.48C78.0871 68.0053 78.7537 67.768 79.6391 67.768C79.9484 67.768 80.2257 67.792 80.4711 67.84C80.7217 67.8827 80.9564 67.944 81.1751 68.024V68.968C80.7217 68.7813 80.2364 68.688 79.7191 68.688C79.1324 68.688 78.7111 68.8347 78.4551 69.128C78.1991 69.4213 78.0711 69.8693 78.0711 70.472C78.0711 71.6027 78.6257 72.168 79.7351 72.168C79.9857 72.168 80.2337 72.1467 80.4791 72.104C80.7244 72.056 80.9591 71.9867 81.1831 71.896V72.848C80.9644 72.9173 80.7297 72.9733 80.4791 73.016C80.2337 73.0587 79.9564 73.08 79.6471 73.08ZM83.6679 73.08C82.9586 73.08 82.4386 72.9093 82.1079 72.568C81.7773 72.2213 81.6119 71.7333 81.6119 71.104C81.6119 70.4747 81.7773 69.9893 82.1079 69.648C82.4439 69.3013 82.9639 69.128 83.6679 69.128C84.3773 69.128 84.8973 69.3013 85.2279 69.648C85.5639 69.9893 85.7319 70.4747 85.7319 71.104C85.7319 71.7333 85.5666 72.2213 85.2359 72.568C84.9053 72.9093 84.3826 73.08 83.6679 73.08ZM83.6679 72.16C84.0146 72.16 84.2626 72.0827 84.4119 71.928C84.5613 71.768 84.6359 71.4933 84.6359 71.104C84.6359 70.7147 84.5613 70.4427 84.4119 70.288C84.2626 70.128 84.0146 70.048 83.6679 70.048C83.3266 70.048 83.0813 70.128 82.9319 70.288C82.7826 70.4427 82.7079 70.7147 82.7079 71.104C82.7079 71.4933 82.7826 71.768 82.9319 71.928C83.0813 72.0827 83.3266 72.16 83.6679 72.16ZM86.3229 73V69.208H87.3229L87.3629 69.576C87.5442 69.4373 87.7415 69.328 87.9549 69.248C88.1735 69.168 88.4082 69.128 88.6589 69.128C88.9255 69.128 89.1309 69.168 89.2749 69.248C89.4242 69.328 89.5389 69.4427 89.6189 69.592C89.7949 69.4533 89.9949 69.3413 90.2189 69.256C90.4482 69.1707 90.7175 69.128 91.0269 69.128C91.4642 69.128 91.7869 69.2427 91.9949 69.472C92.2029 69.696 92.3069 70.04 92.3069 70.504V73H91.2429V70.624C91.2429 70.3733 91.1895 70.1947 91.0829 70.088C90.9762 69.976 90.8055 69.92 90.5709 69.92C90.2509 69.92 89.9842 70.0347 89.7709 70.264C89.7975 70.3547 89.8109 70.464 89.8109 70.592V73H88.8029V70.624C88.8029 70.3893 88.7629 70.2133 88.6829 70.096C88.6029 69.9787 88.4482 69.92 88.2189 69.92C88.0589 69.92 87.9069 69.9627 87.7629 70.048C87.6242 70.128 87.4989 70.2213 87.3869 70.328V73H86.3229ZM93.0301 74.728V69.208H93.9661L94.0221 69.56C94.1874 69.4213 94.3687 69.3147 94.5661 69.24C94.7634 69.1653 94.9954 69.128 95.2621 69.128C95.8167 69.128 96.2434 69.28 96.5421 69.584C96.8461 69.8827 96.9981 70.3733 96.9981 71.056C96.9981 71.7387 96.8354 72.248 96.5101 72.584C96.1901 72.9147 95.7527 73.08 95.1981 73.08C94.7714 73.08 94.4087 72.984 94.1101 72.792V74.728H93.0301ZM94.9261 72.288C95.2461 72.288 95.4887 72.1893 95.6541 71.992C95.8194 71.7947 95.9021 71.4853 95.9021 71.064C95.9021 70.6587 95.8274 70.368 95.6781 70.192C95.5287 70.0107 95.2887 69.92 94.9581 69.92C94.6274 69.92 94.3447 70.0347 94.1101 70.264V72C94.2221 72.0853 94.3394 72.1547 94.4621 72.208C94.5901 72.2613 94.7447 72.288 94.9261 72.288ZM98.7808 73.08C98.5408 73.08 98.3168 73.0373 98.1088 72.952C97.9061 72.8613 97.7408 72.7307 97.6128 72.56C97.4901 72.384 97.4288 72.1653 97.4288 71.904C97.4288 71.5307 97.5595 71.232 97.8208 71.008C98.0875 70.784 98.4795 70.672 98.9968 70.672H100.117V70.568C100.117 70.3333 100.05 70.168 99.9168 70.072C99.7888 69.976 99.5275 69.928 99.1328 69.928C98.7008 69.928 98.2848 69.9947 97.8848 70.128V69.368C98.0608 69.2987 98.2741 69.2427 98.5248 69.2C98.7808 69.152 99.0581 69.128 99.3568 69.128C99.9275 69.128 100.367 69.2453 100.677 69.48C100.991 69.7093 101.149 70.08 101.149 70.592V73H100.213L100.157 72.656C100.007 72.7893 99.8235 72.8933 99.6048 72.968C99.3861 73.0427 99.1115 73.08 98.7808 73.08ZM99.0768 72.368C99.3168 72.368 99.5248 72.328 99.7008 72.248C99.8768 72.168 100.015 72.0667 100.117 71.944V71.344H99.0208C98.5995 71.344 98.3888 71.5173 98.3888 71.864C98.3888 72.2 98.6181 72.368 99.0768 72.368ZM101.858 73V69.208H102.858L102.898 69.568C103.053 69.4507 103.248 69.3493 103.482 69.264C103.722 69.1733 103.973 69.128 104.234 69.128C104.736 69.128 105.101 69.2453 105.33 69.48C105.56 69.7147 105.674 70.0773 105.674 70.568V73H104.594V70.624C104.594 70.368 104.541 70.1867 104.434 70.08C104.333 69.9733 104.141 69.92 103.858 69.92C103.693 69.92 103.525 69.9573 103.354 70.032C103.189 70.1067 103.05 70.2 102.938 70.312V73H101.858ZM107.183 74.408C107.017 74.408 106.871 74.3973 106.743 74.376C106.615 74.36 106.489 74.328 106.367 74.28V73.52C106.457 73.552 106.54 73.5733 106.615 73.584C106.695 73.5947 106.775 73.6 106.855 73.6C107.073 73.6 107.241 73.5493 107.359 73.448C107.481 73.3467 107.604 73.176 107.727 72.936L106.031 69.208H107.159L108.271 71.784L109.375 69.208H110.495L108.999 72.736C108.86 73.0667 108.708 73.3573 108.543 73.608C108.383 73.864 108.193 74.0613 107.975 74.2C107.756 74.3387 107.492 74.408 107.183 74.408Z" fill="#2B2B2B"/>
</svg>
